<svg stroke-linejoin="round" xmlns:rdf="http://www.w3.org/1999/02/22-rdf-syntax-ns#" xmlns="http://www.w3.org/2000/svg" fill-rule="evenodd" xml:space="preserve" height="100.56mm" viewBox="0 0 7714.4947 10055.651" width="77.145mm" version="1.2" preserveAspectRatio="xMidYMid" xmlns:cc="http://creativecommons.org/ns#" xmlns:dc="http://purl.org/dc/elements/1.1/" stroke-width="28.222"><g transform="matrix(1.7589 0 0 1.7589 -.054261 0)"><path d="m4375 2936c-270 146-573 229-895 229-323 0-625-83-886-229-10 83-10 156-10 229 0 209 31 417 93 604 250 84 521 125 803 125 281 0 552-52 812-135 63-187 94-385 94-594 0-73 0-156-11-229z" fill="#e33137"/><path d="m1657 1573c-240 135-448 333-615 561 156 469 438 875 813 1177v-146c0-271 41-531 125-781-167-240-282-509-323-811z" fill="#e33137"/><path d="m1042 2134c167-228 375-426 615-561-11-84-11-157-11-240 0-198 31-396 94-583-302 104-583 260-823 458v125c0 281 42 552 125 801z" fill="#7d3337"/><path d="m2625 4999c240 239 532 427 844 552 323-125 615-313 865-552-313-11-594-105-854-250-250 145-542 239-855 250z" fill="#007dc3"/><path d="m3480 1583c260-146 541-229 854-250-250-229-542-417-865-542-312 125-604 313-844 542 313 21 605 104 855 250z" fill="#f6921e"/><path d="m1980 2384c-84 250-125 510-125 781v146c239 198 520 354 822 458-62-187-93-395-93-604 0-73 0-146 10-229-250-135-458-323-614-552z" fill="#e5e5e5"/><path d="m1980 2384c-84 250-125 510-125 781v146c239 198 520 354 822 458-62-187-93-395-93-604 0-73 0-146 10-229-250-135-458-323-614-552z" fill="#f6921e"/><path d="m4334 4999c-250 239-542 427-865 552h11c333-125 625-313 864-552h-10z" fill="#cecece"/><path d="m2615 4780c229-11 458-63 667-167-271-219-490-510-605-844-302-104-583-260-822-458 31 563 239 1073 572 1479l188-10z" fill="#ffd440"/><path d="m2469 5155-177-177c-885-125-1573-886-1573-1813 0-281 73-562 188-802-11-41-32-94-52-146-53-177-94-353-115-540l-21-271c-448 458-719 1072-719 1759 0 1417 1146 2552 2552 2552 209 0 417-20 605-73-250-125-480-291-688-489z" fill="#00a6e0"/><path d="m2240 0c-396 31-771 145-1104 312-84 188-146 386-177 594 218-156 458-281 708-365l198-62c94-177 219-344 375-479z" fill="#e33137"/><path d="m2615 1552h-188c-197 239-354 520-447 832 156 229 364 417 614 552 63-489 313-917 688-1207-209-104-438-167-667-177z" fill="#ffd440"/></g><g stroke-linejoin="round" fill-rule="evenodd" transform="translate(1015.9 31674)" stroke-width="28.222"/><style xmlns="http://www.w3.org/1999/xhtml" id="VMst07b1k74b0">
#debug, .dev-hide {
  display: block !important;
}
</style></svg>